<?xml version="1.0" encoding="UTF-8"?>
<svg id="a" data-name="Layer 1" xmlns="http://www.w3.org/2000/svg" viewBox="0 0 1073.787 254.244">
  <polygon points="104.137 146.818 183.07 146.818 202.632 184.985 84.165 184.985 104.137 146.818" fill="#231f20"/>
  <polyline points="110.806 0 0 210.224 57.558 210.224 143.398 47.708 228.692 210.224 282.556 210.224 170.211 0" fill="#231f20"/>
  <polyline points="230.079 89.045 263.561 152.145 346.312 0 278.597 0" fill="#231f20"/>
  <polygon points="380.332 0 440.865 0 325.34 210.224 291.892 210.224 279.17 186.011 380.332 0" fill="#231f20"/>
  <g id="b">
    <circle cx="143.402" cy="119.609" r="5.023" fill="#231f20"/>
    <rect x="128.079" y="144.013" width="30.747" height="8.812" fill="#231f20"/>
    <path d="M144.625,70.592v42.111c3.293,.58,5.797,3.448,5.797,6.907,0,3.877-3.143,7.02-7.02,7.02s-7.02-3.143-7.02-7.02c0-3.461,2.508-6.331,5.804-6.908v-42.07c-7.944,15.082-15.888,30.164-23.832,45.247,3.06,5.297,5.493,9.491,7.423,12.578,.657,1.051,1.9,3.004,2.419,5.877,.279,1.545,.257,2.855,.198,3.708h30.046c-.059-.853-.081-2.163,.198-3.708,.518-2.873,1.762-4.826,2.418-5.877,1.93-3.088,4.363-7.282,7.423-12.578-7.951-15.095-15.902-30.191-23.853-45.286h0Z" fill="#231f20"/>
    <rect x="128.079" y="140.214" width="30.747" height="1.596" fill="#231f20"/>
  </g>
  <g>
    <path d="M512.828,86.847h-39.116l-6.271,18.513h-26.725L478.638,.552h29.561l37.921,104.808h-27.023l-6.271-18.513h.001Zm-6.569-19.708l-12.989-38.369-12.84,38.369h25.829Z" fill="#010101"/>
    <path d="M631.745,30.636c5.823,6.322,8.733,15.005,8.733,26.052v48.671h-25.38V60.122c0-5.573-1.445-9.903-4.329-12.989-2.888-3.084-6.77-4.628-11.646-4.628s-8.76,1.545-11.646,4.628c-2.888,3.087-4.329,7.415-4.329,12.989v45.237h-25.529V22.051h25.529v11.048c2.587-3.681,6.07-6.593,10.451-8.734,4.38-2.139,9.306-3.21,14.781-3.21,9.753,0,17.544,3.161,23.366,9.48h-.001Z" fill="#010101"/>
    <path d="M705.348,24.44c4.427,2.389,7.839,5.524,10.227,9.406v-11.795h25.529V105.21c0,7.663-1.518,14.605-4.553,20.827-3.037,6.219-7.666,11.172-13.884,14.855-6.222,3.681-13.959,5.524-23.217,5.524-12.342,0-22.345-2.91-30.008-8.733-7.667-5.823-12.044-13.713-13.139-23.664h25.232c.796,3.184,2.688,5.697,5.673,7.54,2.986,1.841,6.667,2.762,11.048,2.762,5.273,0,9.479-1.519,12.615-4.554,3.135-3.036,4.703-7.889,4.703-14.556v-11.795c-2.489,3.881-5.923,7.043-10.302,9.48-4.381,2.44-9.506,3.658-15.378,3.658-6.868,0-13.089-1.766-18.662-5.301-5.575-3.532-9.979-8.559-13.213-15.078-3.236-6.517-4.852-14.057-4.852-22.619s1.616-16.073,4.852-22.544c3.234-6.469,7.638-11.444,13.213-14.93,5.573-3.483,11.795-5.225,18.662-5.225,5.872,0,11.023,1.194,15.452,3.583h.001Zm4.927,24.188c-3.534-3.681-7.839-5.524-12.915-5.524s-9.382,1.817-12.914,5.449c-3.534,3.635-5.3,8.636-5.3,15.005s1.766,11.422,5.3,15.154c3.532,3.733,7.839,5.599,12.914,5.599s9.381-1.841,12.915-5.524c3.532-3.681,5.3-8.708,5.3-15.079s-1.769-11.396-5.3-15.078h0Z" fill="#010101"/>
    <path d="M810.526,105.36l-25.38-34.936v34.936h-25.529V0h25.529V55.942l25.232-33.891h31.503l-34.638,41.803,34.936,41.504h-31.652Z" fill="#010101"/>
    <path d="M867.782,101.329c-6.519-3.483-11.646-8.459-15.378-14.93-3.733-6.469-5.598-14.034-5.598-22.693,0-8.559,1.889-16.099,5.672-22.619,3.782-6.517,8.958-11.519,15.527-15.004,6.569-3.483,13.934-5.225,22.097-5.225s15.527,1.743,22.097,5.225c6.569,3.485,11.743,8.487,15.527,15.004,3.782,6.521,5.673,14.06,5.673,22.619s-1.918,16.102-5.749,22.619c-3.833,6.519-9.059,11.521-15.676,15.005-6.621,3.484-14.011,5.225-22.171,5.225s-15.504-1.741-22.021-5.225h.001Zm34.488-22.247c3.433-3.583,5.151-8.708,5.151-15.378s-1.669-11.794-5.001-15.377c-3.337-3.583-7.442-5.376-12.317-5.376-4.978,0-9.107,1.769-12.392,5.3-3.284,3.534-4.926,8.685-4.926,15.452,0,6.67,1.617,11.795,4.852,15.378,3.234,3.583,7.29,5.376,12.168,5.376s9.032-1.792,12.467-5.376h-.001Z" fill="#010101"/>
    <path d="M962.885,101.329c-6.519-3.483-11.646-8.459-15.378-14.93-3.733-6.469-5.598-14.034-5.598-22.693,0-8.559,1.889-16.099,5.672-22.619,3.782-6.517,8.958-11.519,15.527-15.004,6.569-3.483,13.934-5.225,22.097-5.225s15.527,1.743,22.097,5.225c6.569,3.485,11.743,8.487,15.527,15.004,3.782,6.521,5.673,14.06,5.673,22.619s-1.918,16.102-5.749,22.619c-3.833,6.519-9.059,11.521-15.676,15.005-6.621,3.484-14.011,5.225-22.171,5.225s-15.504-1.741-22.021-5.225h.001Zm34.488-22.247c3.433-3.583,5.151-8.708,5.151-15.378s-1.669-11.794-5.001-15.377c-3.337-3.583-7.442-5.376-12.317-5.376-4.978,0-9.107,1.769-12.392,5.3-3.284,3.534-4.926,8.685-4.926,15.452,0,6.67,1.617,11.795,4.852,15.378,3.234,3.583,7.29,5.376,12.168,5.376s9.032-1.792,12.467-5.376h-.001Z" fill="#010101"/>
    <path d="M1067.616,0V105.36h-25.529V0h25.529Z" fill="#010101"/>
  </g>
  <g>
    <path d="M515.281,155.813l-15.878,53.57h-9.943l-11.254-40.544-11.947,40.544-9.866,.077-15.185-53.647h9.327l11.1,43.627,12.024-43.627h9.866l11.176,43.396,11.177-43.396h9.403Z" fill="#231f20"/>
    <path d="M532.779,207.341c-3.238-1.823-5.781-4.394-7.631-7.708-1.85-3.314-2.775-7.154-2.775-11.522,0-4.317,.95-8.145,2.852-11.485,1.901-3.34,4.496-5.908,7.785-7.708,3.288-1.798,6.962-2.697,11.022-2.697s7.733,.899,11.022,2.697c3.288,1.8,5.883,4.368,7.785,7.708,1.901,3.341,2.853,7.168,2.853,11.485s-.977,8.145-2.93,11.484c-1.953,3.341-4.612,5.923-7.978,7.746-3.366,1.825-7.079,2.736-11.138,2.736-4.008,0-7.631-.911-10.868-2.736Zm17.227-6.513c1.978-1.079,3.584-2.698,4.817-4.856,1.234-2.158,1.85-4.778,1.85-7.861s-.591-5.691-1.773-7.824c-1.183-2.132-2.75-3.738-4.702-4.817-1.954-1.079-4.06-1.618-6.321-1.618s-4.355,.539-6.282,1.618c-1.927,1.079-3.457,2.686-4.586,4.817-1.131,2.133-1.696,4.74-1.696,7.824,0,4.573,1.168,8.106,3.507,10.598,2.337,2.493,5.28,3.738,8.826,3.738,2.26,0,4.38-.539,6.359-1.618Z" fill="#231f20"/>
    <path d="M591.01,168.03c2.132-1.206,4.664-1.811,7.593-1.811v9.095h-2.235c-3.443,0-6.051,.875-7.823,2.621-1.773,1.747-2.659,4.778-2.659,9.096v22.353h-8.788v-42.471h8.788v6.166c1.283-2.158,2.992-3.841,5.125-5.049Z" fill="#231f20"/>
    <path d="M626.196,188.187l19.578,21.197h-11.87l-15.724-18.268v18.268h-8.787v-57.039h8.787v33.145l15.415-18.576h12.179l-19.578,21.273Z" fill="#231f20"/>
    <path d="M661.228,208.267c-2.646-1.207-4.74-2.853-6.281-4.934-1.542-2.081-2.364-4.405-2.467-6.976h9.095c.154,1.799,1.015,3.303,2.583,4.509,1.566,1.208,3.532,1.812,5.896,1.812,2.466,0,4.38-.475,5.742-1.426,1.361-.95,2.043-2.17,2.043-3.661,0-1.593-.759-2.775-2.274-3.546-1.517-.771-3.919-1.618-7.207-2.544-3.187-.873-5.78-1.721-7.785-2.543-2.004-.821-3.738-2.081-5.202-3.777-1.465-1.695-2.197-3.931-2.197-6.706,0-2.26,.667-4.328,2.004-6.204,1.336-1.876,3.25-3.354,5.743-4.433,2.491-1.079,5.356-1.618,8.594-1.618,4.83,0,8.723,1.221,11.678,3.661,2.954,2.441,4.534,5.769,4.74,9.981h-8.787c-.154-1.9-.925-3.417-2.312-4.548-1.387-1.13-3.264-1.695-5.627-1.695-2.312,0-4.085,.438-5.318,1.311-1.233,.874-1.85,2.03-1.85,3.468,0,1.131,.411,2.082,1.233,2.853,.821,.771,1.823,1.375,3.006,1.812,1.182,.437,2.929,.989,5.241,1.657,3.084,.822,5.614,1.657,7.593,2.505,1.978,.848,3.687,2.094,5.126,3.738,1.438,1.646,2.184,3.828,2.235,6.552,0,2.416-.669,4.574-2.005,6.475-1.336,1.901-3.225,3.392-5.665,4.471-2.441,1.079-5.307,1.618-8.594,1.618-3.342,0-6.334-.604-8.98-1.811Z" fill="#231f20"/>
    <path d="M762.78,209.384l-6.629-6.629c-2.57,2.57-5.37,4.484-8.402,5.742-3.032,1.259-6.424,1.889-10.174,1.889-3.804,0-7.169-.668-10.098-2.004s-5.19-3.249-6.783-5.742c-1.593-2.492-2.389-5.383-2.389-8.672,0-3.699,1.052-7.001,3.16-9.904,2.106-2.902,5.241-5.203,9.403-6.898-1.491-1.799-2.544-3.481-3.16-5.049-.617-1.567-.925-3.302-.925-5.203,0-2.363,.604-4.471,1.812-6.32,1.206-1.851,2.94-3.314,5.202-4.394,2.261-1.079,4.882-1.619,7.862-1.619,3.031,0,5.613,.578,7.746,1.734,2.132,1.156,3.726,2.736,4.779,4.74,1.053,2.005,1.477,4.239,1.271,6.706h-8.787c.051-1.9-.411-3.378-1.387-4.432-.977-1.053-2.312-1.58-4.009-1.58s-3.07,.501-4.123,1.503c-1.054,1.002-1.58,2.223-1.58,3.661,0,1.388,.397,2.763,1.194,4.124,.796,1.362,2.197,3.121,4.201,5.279l14.183,14.105,5.473-9.018h9.48l-6.938,11.87-1.927,3.16,13.026,12.949h-11.484Zm-12.41-12.41l-14.183-14.26c-6.063,2.416-9.096,6.064-9.096,10.945,0,2.621,.976,4.818,2.93,6.591,1.952,1.772,4.471,2.659,7.554,2.659,4.829,0,9.095-1.978,12.795-5.936Z" fill="#231f20"/>
    <path d="M814.267,162.905v15.724h18.499v7.169h-18.499v16.418h20.812v7.168h-29.599v-53.647h29.599v7.169h-20.812Z" fill="#231f20"/>
    <path d="M866.37,174.081h-7.861v35.303h-8.864v-35.303h-5.011v-7.168h5.011v-3.006c0-4.882,1.297-8.44,3.893-10.676,2.594-2.235,6.667-3.353,12.217-3.353v7.322c-2.673,0-4.548,.501-5.627,1.503s-1.618,2.736-1.618,5.203v3.006h7.861v7.168Z" fill="#231f20"/>
    <path d="M894.657,174.081h-7.861v35.303h-8.864v-35.303h-5.011v-7.168h5.011v-3.006c0-4.882,1.297-8.44,3.893-10.676,2.594-2.235,6.667-3.353,12.217-3.353v7.322c-2.673,0-4.548,.501-5.627,1.503s-1.618,2.736-1.618,5.203v3.006h7.861v7.168Z" fill="#231f20"/>
    <path d="M943.756,191.424h-32.45c.257,3.392,1.515,6.116,3.777,8.171,2.26,2.056,5.035,3.083,8.324,3.083,4.728,0,8.066-1.978,10.021-5.935h9.48c-1.285,3.905-3.61,7.104-6.976,9.596-3.366,2.493-7.542,3.738-12.525,3.738-4.06,0-7.696-.911-10.907-2.736-3.212-1.823-5.729-4.394-7.554-7.708s-2.736-7.154-2.736-11.522,.887-8.209,2.659-11.523c1.773-3.314,4.265-5.87,7.478-7.67,3.21-1.798,6.898-2.697,11.061-2.697,4.008,0,7.579,.874,10.714,2.62,3.134,1.748,5.575,4.201,7.322,7.361s2.621,6.796,2.621,10.906c0,1.594-.104,3.033-.309,4.316Zm-8.864-7.091c-.052-3.237-1.208-5.831-3.468-7.785-2.263-1.952-5.062-2.929-8.402-2.929-3.032,0-5.627,.963-7.785,2.891-2.158,1.927-3.442,4.535-3.854,7.823h23.509Z" fill="#231f20"/>
    <path d="M955.124,176.587c1.773-3.314,4.227-5.87,7.361-7.67,3.134-1.798,6.731-2.697,10.791-2.697,5.138,0,9.391,1.221,12.757,3.661,3.365,2.441,5.639,5.923,6.821,10.444h-9.48c-.771-2.106-2.004-3.751-3.7-4.934-1.695-1.182-3.828-1.772-6.397-1.772-3.597,0-6.462,1.271-8.594,3.815-2.133,2.543-3.199,6.103-3.199,10.676s1.066,8.145,3.199,10.714c2.132,2.569,4.997,3.854,8.594,3.854,5.088,0,8.452-2.235,10.098-6.706h9.48c-1.233,4.316-3.545,7.747-6.937,10.29-3.392,2.544-7.605,3.815-12.642,3.815-4.06,0-7.657-.911-10.791-2.736-3.135-1.823-5.588-4.394-7.361-7.708-1.772-3.314-2.659-7.154-2.659-11.522s.887-8.209,2.659-11.523Z" fill="#231f20"/>
    <path d="M1014.591,174.081v23.51c0,1.593,.372,2.736,1.118,3.43,.744,.694,2.016,1.041,3.815,1.041h5.396v7.322h-6.938c-3.957,0-6.988-.925-9.095-2.774-2.108-1.851-3.161-4.856-3.161-9.019v-23.51h-5.01v-7.168h5.01v-10.56h8.864v10.56h10.329v7.168h-10.329Z" fill="#231f20"/>
    <path d="M1042.146,208.267c-2.646-1.207-4.74-2.853-6.281-4.934-1.542-2.081-2.364-4.405-2.467-6.976h9.095c.154,1.799,1.015,3.303,2.583,4.509,1.566,1.208,3.532,1.812,5.896,1.812,2.466,0,4.38-.475,5.742-1.426,1.361-.95,2.043-2.17,2.043-3.661,0-1.593-.759-2.775-2.274-3.546-1.517-.771-3.919-1.618-7.207-2.544-3.187-.873-5.78-1.721-7.785-2.543-2.004-.821-3.738-2.081-5.202-3.777-1.465-1.695-2.197-3.931-2.197-6.706,0-2.26,.667-4.328,2.004-6.204,1.336-1.876,3.25-3.354,5.743-4.433,2.491-1.079,5.356-1.618,8.594-1.618,4.83,0,8.723,1.221,11.678,3.661,2.954,2.441,4.534,5.769,4.74,9.981h-8.787c-.154-1.9-.925-3.417-2.312-4.548-1.387-1.13-3.264-1.695-5.627-1.695-2.312,0-4.085,.438-5.318,1.311-1.233,.874-1.85,2.03-1.85,3.468,0,1.131,.411,2.082,1.233,2.853,.821,.771,1.823,1.375,3.006,1.812,1.182,.437,2.929,.989,5.241,1.657,3.084,.822,5.614,1.657,7.593,2.505,1.978,.848,3.687,2.094,5.126,3.738,1.438,1.646,2.184,3.828,2.235,6.552,0,2.416-.669,4.574-2.005,6.475-1.336,1.901-3.225,3.392-5.665,4.471-2.441,1.079-5.307,1.618-8.594,1.618-3.342,0-6.334-.604-8.98-1.811Z" fill="#231f20"/>
  </g>
</svg>