<?xml version="1.0" encoding="utf-8"?>
<!-- Generator: Adobe Illustrator 26.4.1, SVG Export Plug-In . SVG Version: 6.00 Build 0)  -->
<svg version="1.1" id="a" xmlns="http://www.w3.org/2000/svg" xmlns:xlink="http://www.w3.org/1999/xlink" x="0px" y="0px"
	 viewBox="0 0 1920 1920" style="enable-background:new 0 0 1920 1920;" xml:space="preserve">
<style type="text/css">
	.st0{fill:#231F20;}
	.st1{fill:#FFFFFF;}
	.st2{fill:none;}
</style>
<rect y="-0.3" class="st0" width="1920" height="1920"/>
<polygon class="st1" points="705.1,1063.5 901.7,1063.5 950.4,1158.6 655.3,1158.6 "/>
<polyline class="st1" points="721.7,697.8 445.7,1221.5 589.1,1221.5 802.9,816.7 1015.3,1221.5 1149.5,1221.5 869.7,697.8 "/>
<polyline class="st1" points="1018.8,919.6 1102.2,1076.8 1308.3,697.8 1139.6,697.8 "/>
<polygon class="st1" points="1398,697.8 1548.8,697.8 1261.1,1221.5 1177.8,1221.5 1145.5,1161.2 "/>
<g id="b">
	<circle class="st1" cx="802.9" cy="995.8" r="12.5"/>
	<rect x="764.7" y="1056.6" class="st1" width="76.6" height="21.9"/>
	<path class="st1" d="M805.9,873.7v104.9c8.2,1.4,14.4,8.6,14.4,17.2c0,9.7-7.8,17.5-17.5,17.5s-17.5-7.8-17.5-17.5
		c0-8.6,6.2-15.8,14.5-17.2V873.8c-19.8,37.6-39.6,75.1-59.4,112.7c7.6,13.2,13.7,23.6,18.5,31.3c1.6,2.6,4.7,7.5,6,14.6
		c0.7,3.8,0.6,7.1,0.5,9.2h74.8c-0.1-2.1-0.2-5.4,0.5-9.2c1.3-7.2,4.4-12,6-14.6c4.8-7.7,10.9-18.1,18.5-31.3
		C845.5,948.9,825.7,911.3,805.9,873.7L805.9,873.7z"/>
	<rect x="764.7" y="1047.1" class="st1" width="76.6" height="4"/>
</g>
<circle class="st2" cx="960" cy="960" r="960"/>
</svg>
