<?xml version="1.0" encoding="UTF-8"?>
<svg id="a" data-name="Layer 1" xmlns="http://www.w3.org/2000/svg" viewBox="0 0 1098.126 523.635">
  <polygon points="259.39 365.701 455.998 365.701 504.724 460.768 209.642 460.768 259.39 365.701" fill="#231f20"/>
  <polyline points="276.001 0 0 523.635 143.367 523.635 357.183 118.834 569.635 523.635 703.803 523.635 423.968 0" fill="#231f20"/>
  <polyline points="573.092 221.796 656.488 378.97 862.61 0 693.942 0" fill="#231f20"/>
  <polygon points="947.348 0 1098.126 0 810.37 523.635 727.058 523.635 695.369 463.324 947.348 0" fill="#231f20"/>
  <g id="b" data-name="Vector Tool">
    <circle cx="357.191" cy="297.928" r="12.511" fill="#231f20"/>
    <rect x="319.025" y="358.714" width="76.586" height="21.95" fill="#231f20"/>
    <path d="M360.238,175.833v104.891c8.202,1.444,14.439,8.588,14.439,17.204,0,9.657-7.829,17.486-17.486,17.486s-17.486-7.829-17.486-17.486c0-8.622,6.246-15.769,14.456-17.206v-104.789c-19.787,37.567-39.575,75.135-59.362,112.702,7.621,13.193,13.681,23.641,18.489,31.331,1.637,2.618,4.733,7.483,6.025,14.639,.694,3.849,.641,7.112,.493,9.237h74.839c-.148-2.125-.201-5.388,.493-9.237,1.291-7.156,4.388-12.021,6.024-14.639,4.808-7.691,10.868-18.139,18.489-31.331-19.805-37.6-39.609-75.2-59.414-112.801Z" fill="#231f20"/>
    <rect x="319.025" y="349.25" width="76.586" height="3.976" fill="#231f20"/>
  </g>
</svg>